<svg 
 xmlns="http://www.w3.org/2000/svg"
 xmlns:xlink="http://www.w3.org/1999/xlink"
 width="48px" height="48px">
<path fill-rule="evenodd"  fill="rgb(32, 189, 190)"
 d="M4.000,-0.000 L44.000,-0.000 C46.209,-0.000 48.000,1.791 48.000,4.000 L48.000,44.000 C48.000,46.209 46.209,48.000 44.000,48.000 L4.000,48.000 C1.791,48.000 -0.000,46.209 -0.000,44.000 L-0.000,4.000 C-0.000,1.791 1.791,-0.000 4.000,-0.000 Z"/>
<path fill-rule="evenodd"  fill="rgb(255, 255, 255)"
 d="M25.000,25.000 L26.000,25.000 L26.000,26.000 L27.000,26.000 L27.000,27.000 L28.000,27.000 L28.000,28.000 L29.000,28.000 L29.000,29.000 L30.000,29.000 L30.000,30.000 L31.000,30.000 L31.000,31.000 L32.000,31.000 L32.000,32.000 L33.000,32.000 L33.000,33.000 L34.000,33.000 L34.000,34.000 L35.000,34.000 L35.000,35.000 L34.000,35.000 L33.000,35.000 L33.000,34.000 L32.000,34.000 L32.000,33.000 L31.000,33.000 L31.000,32.000 L30.000,32.000 L30.000,31.000 L29.000,31.000 L29.000,30.000 L28.000,30.000 L28.000,29.000 L27.000,29.000 L27.000,28.000 L26.000,28.000 L26.000,27.000 L25.000,27.000 L25.000,26.000 L24.000,26.000 L24.000,25.000 L23.000,25.000 L23.000,26.000 L22.000,26.000 L22.000,27.000 L21.000,27.000 L21.000,28.000 L20.000,28.000 L20.000,29.000 L19.000,29.000 L19.000,30.000 L18.000,30.000 L18.000,31.000 L17.000,31.000 L17.000,32.000 L16.000,32.000 L16.000,33.000 L15.000,33.000 L15.000,34.000 L14.000,34.000 L14.000,35.000 L13.000,35.000 L12.000,35.000 L12.000,34.000 L13.000,34.000 L13.000,33.000 L14.000,33.000 L14.000,32.000 L15.000,32.000 L15.000,31.000 L16.000,31.000 L16.000,30.000 L17.000,30.000 L17.000,29.000 L18.000,29.000 L18.000,28.000 L19.000,28.000 L19.000,27.000 L20.000,27.000 L20.000,26.000 L21.000,26.000 L21.000,25.000 L22.000,25.000 L22.000,24.000 L22.000,23.000 L21.000,23.000 L21.000,22.000 L20.000,22.000 L20.000,21.000 L19.000,21.000 L19.000,20.000 L18.000,20.000 L18.000,19.000 L17.000,19.000 L17.000,18.000 L16.000,18.000 L16.000,17.000 L15.000,17.000 L15.000,16.000 L14.000,16.000 L14.000,15.000 L13.000,15.000 L13.000,14.000 L12.000,14.000 L12.000,13.000 L13.000,13.000 L14.000,13.000 L14.000,14.000 L15.000,14.000 L15.000,15.000 L16.000,15.000 L16.000,16.000 L17.000,16.000 L17.000,17.000 L18.000,17.000 L18.000,18.000 L19.000,18.000 L19.000,19.000 L20.000,19.000 L20.000,20.000 L21.000,20.000 L21.000,21.000 L22.000,21.000 L22.000,22.000 L23.000,22.000 L23.000,23.000 L24.000,23.000 L24.000,22.000 L25.000,22.000 L25.000,21.000 L26.000,21.000 L26.000,20.000 L27.000,20.000 L27.000,19.000 L28.000,19.000 L28.000,18.000 L29.000,18.000 L29.000,17.000 L30.000,17.000 L30.000,16.000 L31.000,16.000 L31.000,15.000 L32.000,15.000 L32.000,14.000 L33.000,14.000 L33.000,13.000 L34.000,13.000 L35.000,13.000 L35.000,14.000 L34.000,14.000 L34.000,15.000 L33.000,15.000 L33.000,16.000 L32.000,16.000 L32.000,17.000 L31.000,17.000 L31.000,18.000 L30.000,18.000 L30.000,19.000 L29.000,19.000 L29.000,20.000 L28.000,20.000 L28.000,21.000 L27.000,21.000 L27.000,22.000 L26.000,22.000 L26.000,23.000 L25.000,23.000 L25.000,24.000 L25.000,25.000 Z"/>
</svg>